<svg xmlns="http://www.w3.org/2000/svg" overflow="visible" viewBox="0 0 256 256"><path d="M128 23.06c34.18 0 38.23.13 51.72.75 12.48.57 19.26 2.65 23.77 4.41 5.97 2.32 10.24 5.1 14.72 9.58s7.25 8.74 9.57 14.72c1.75 4.51 3.84 11.29 4.41 23.77.62 13.5.75 17.55.75 51.72s-.13 38.23-.75 51.72c-.57 12.48-2.65 19.26-4.41 23.77-2.32 5.97-5.1 10.24-9.57 14.72-4.48 4.48-8.74 7.25-14.72 9.57-4.51 1.75-11.29 3.84-23.77 4.41-13.5.62-17.54.75-51.72.75s-38.23-.13-51.72-.75c-12.48-.57-19.26-2.65-23.77-4.41-5.97-2.32-10.24-5.1-14.72-9.57-4.48-4.48-7.25-8.74-9.57-14.72-1.75-4.51-3.84-11.29-4.41-23.77-.62-13.5-.75-17.55-.75-51.72s.13-38.23.75-51.72c.57-12.48 2.65-19.26 4.41-23.77 2.32-5.97 5.1-10.24 9.57-14.72s8.74-7.25 14.72-9.58c4.51-1.75 11.29-3.84 23.77-4.41 13.49-.62 17.54-.75 51.72-.75M128 0C93.24 0 88.88.15 75.23.77 61.6 1.39 52.3 3.56 44.15 6.72c-8.42 3.27-15.56 7.65-22.67 14.76S9.99 35.74 6.72 44.16C3.56 52.3 1.39 61.6.77 75.23.15 88.88 0 93.24 0 128s.15 39.12.77 52.77c.62 13.62 2.79 22.93 5.95 31.07 3.27 8.42 7.65 15.56 14.76 22.67 7.12 7.12 14.25 11.49 22.67 14.76 8.14 3.16 17.45 5.33 31.07 5.95 13.66.63 18.02.78 52.78.78s39.12-.15 52.77-.77c13.62-.62 22.93-2.79 31.07-5.95 8.42-3.27 15.56-7.65 22.67-14.76 7.12-7.12 11.49-14.25 14.76-22.67 3.16-8.14 5.33-17.45 5.95-31.07.62-13.65.77-18.01.77-52.77s-.15-39.12-.77-52.77c-.62-13.62-2.79-22.93-5.95-31.07-3.27-8.42-7.65-15.56-14.76-22.67S220.26 9.99 211.84 6.72c-8.14-3.16-17.45-5.33-31.07-5.95C167.12.15 162.76 0 128 0zm0 62.27c-36.3 0-65.73 29.43-65.73 65.73S91.7 193.73 128 193.73s65.73-29.43 65.73-65.73S164.3 62.27 128 62.27zm0 108.4c-23.56 0-42.67-19.1-42.67-42.67s19.1-42.67 42.67-42.67 42.67 19.1 42.67 42.67-19.11 42.67-42.67 42.67zm83.69-111c0 8.48-6.88 15.36-15.36 15.36s-15.36-6.88-15.36-15.36 6.88-15.36 15.36-15.36 15.36 6.88 15.36 15.36z" fill="#fff"/></svg>